<svg width="856.4199951171875px" height="190.439990234375px" xmlns="http://www.w3.org/2000/svg" viewBox="-178.20999755859373 -20.219995117187494 856.4199951171875 190.439990234375" style="background: rgba(0, 0, 0, 0) none repeat scroll 0% 0%;" preserveAspectRatio="xMidYMid"><defs><filter id="editing-extrusion" x="-100%" y="-100%" width="300%" height="300%"><feFlood result="color1" flood-color="#383562"></feFlood><feConvolveMatrix order="8,8" divisor="1" kernelMatrix="1 0 0 0 0 0 0 0 0 1 0 0 0 0 0 0 0 0 1 0 0 0 0 0 0 0 0 1 0 0 0 0 0 0 0 0 1 0 0 0 0 0 0 0 0 1 0 0 0 0 0 0 0 0 1 0 0 0 0 0 0 0 0 1" in="SourceAlpha" result="extrude"></feConvolveMatrix><feComposite in="color1" in2="extrude" result="comp-extrude" operator="in"></feComposite><feOffset dx="4" dy="4" in="comp-extrude" result="offset-extrude"></feOffset><feMerge><feMergeNode in="offset-extrude"></feMergeNode><feMergeNode in="SourceGraphic"></feMergeNode></feMerge></filter></defs><g filter="url(#editing-extrusion)"><g transform="translate(-55.82000517845154, 120.40499782562256)"><path d="M28.44 1.26L28.44 1.26Q15.66 1.26 8.46-5.44L8.46-5.44L8.46-5.44Q1.26-12.15 1.26-25.02L1.26-25.02L1.26-25.02Q1.26-37.89 8.46-44.59L8.46-44.59L8.46-44.59Q15.66-51.30 28.44-51.30L28.44-51.30L28.44-51.30Q41.13-51.30 46.75-44.68L46.75-44.68L46.75-44.68Q52.38-38.07 52.38-28.26L52.38-28.26L52.38-21.78L23.22-21.78L23.22-21.24L23.22-21.24Q23.22-17.91 25.20-16.34L25.20-16.34L25.20-16.34Q27.18-14.76 31.77-14.76L31.77-14.76L31.77-14.76Q37.26-14.76 42.21-15.57L42.21-15.57L42.21-15.57Q47.16-16.38 50.85-17.64L50.85-17.64L50.85-3.24L50.85-3.24Q47.70-1.53 41.63-0.14L41.63-0.14L41.63-0.14Q35.55 1.26 28.44 1.26L28.44 1.26ZM23.22-31.68L33.66-31.68L33.66-32.76L33.66-32.76Q33.66-35.82 32.35-37.17L32.35-37.17L32.35-37.17Q31.05-38.52 28.44-38.52L28.44-38.52L28.44-38.52Q25.83-38.52 24.52-37.13L24.52-37.13L24.52-37.13Q23.22-35.73 23.22-32.76L23.22-32.76L23.22-31.68ZM103.59-14.76L107.55-14.76L107.55 0L83.79 0L83.79-6.12L83.79-6.12Q81.81-3.24 78.25-0.99L78.25-0.99L78.25-0.99Q74.70 1.26 69.57 1.26L69.57 1.26L69.57 1.26Q62.82 1.26 58.95-2.34L58.95-2.34L58.95-2.34Q55.08-5.94 55.08-12.51L55.08-12.51L55.08-12.51Q55.08-29.52 83.97-29.97L83.97-29.97L83.97-29.97Q83.70-33.03 81.63-34.16L81.63-34.16L81.63-34.16Q79.56-35.28 74.61-35.28L74.61-35.28L74.61-35.28Q70.56-35.28 65.92-34.42L65.92-34.42L65.92-34.42Q61.29-33.57 57.42-32.13L57.42-32.13L57.42-48.69L57.42-48.69Q62.19-49.86 67.77-50.58L67.77-50.58L67.77-50.58Q73.35-51.30 78.66-51.30L78.66-51.30L78.66-51.30Q92.07-51.30 97.83-46.44L97.83-46.44L97.83-46.44Q103.59-41.58 103.59-31.41L103.59-31.41L103.59-14.76ZM83.79-20.52L83.79-21.06L83.79-21.06Q79.74-21.06 77.53-19.98L77.53-19.98L77.53-19.98Q75.33-18.90 75.33-16.38L75.33-16.38L75.33-16.38Q75.33-14.85 76.28-13.90L76.28-13.90L76.28-13.90Q77.22-12.96 78.93-12.96L78.93-12.96L78.93-12.96Q81.27-12.96 82.53-14.94L82.53-14.94L82.53-14.94Q83.79-16.92 83.79-20.52L83.79-20.52ZM132.30 1.26L132.30 1.26Q120.96 1.26 110.43-2.34L110.43-2.34L110.43-15.66L125.01-15.66L125.01-14.76L125.01-14.76Q125.01-10.44 130.50-10.44L130.50-10.44L130.50-10.44Q135.36-10.44 135.36-13.77L135.36-13.77L135.36-13.77Q135.36-15.57 133.97-16.47L133.97-16.47L133.97-16.47Q132.57-17.37 129.06-18L129.06-18L124.56-18.81L124.56-18.81Q110.43-21.33 110.43-34.83L110.43-34.83L110.43-34.83Q110.43-42.66 116.37-46.98L116.37-46.98L116.37-46.98Q122.31-51.30 132.39-51.30L132.39-51.30L132.39-51.30Q143.64-51.30 151.38-47.52L151.38-47.52L151.38-35.01L137.70-35.01L137.70-35.91L137.70-35.91Q137.70-37.71 136.49-38.66L136.49-38.66L136.49-38.66Q135.27-39.60 132.93-39.60L132.93-39.60L132.93-39.60Q128.43-39.60 128.43-36.72L128.43-36.72L128.43-36.72Q128.43-35.19 129.69-34.38L129.69-34.38L129.69-34.38Q130.95-33.57 134.28-32.85L134.28-32.85L139.41-31.86L139.41-31.86Q147.42-30.33 150.84-26.19L150.84-26.19L150.84-26.19Q154.26-22.05 154.26-15.57L154.26-15.57L154.26-15.57Q154.26-7.38 148.55-3.06L148.55-3.06L148.55-3.06Q142.83 1.26 132.30 1.26L132.30 1.26ZM186.30-50.04L211.32-50.04L211.32-35.28L207.90-35.28L196.11-4.05L196.11-4.05Q191.70 7.74 186.03 13.63L186.03 13.63L186.03 13.63Q180.36 19.53 171.09 19.53L171.09 19.53L171.09 19.53Q167.31 19.53 163.44 18.77L163.44 18.77L163.44 18.77Q159.57 18 156.42 16.65L156.42 16.65L156.42 0.36L168.84 0.36L168.84 1.26L168.84 1.26Q168.84 3.51 171.18 3.51L171.18 3.51L171.18 3.51Q173.25 3.51 174.33 1.53L174.33 1.53L160.11-35.28L156.69-35.28L156.69-50.04L183.42-50.04L183.42-35.28L180.36-35.28L185.04-21.24L189.36-35.28L186.30-35.28L186.30-50.04ZM255.24 0L228.42 0L217.08-35.28L213.30-35.28L213.30-50.04L241.11-50.04L241.11-35.28L237.33-35.28L242.10-17.46L243-17.46L247.77-35.28L243.99-35.28L243.99-50.04L270.09-50.04L270.09-35.28L266.31-35.28L255.24 0ZM359.55-14.76L363.51-14.76L363.51 0L335.07 0L335.07-14.76L338.85-14.76L338.85-29.52L338.85-29.52Q338.85-32.49 337.59-33.88L337.59-33.88L337.59-33.88Q336.33-35.28 333.81-35.28L333.81-35.28L333.81-35.28Q328.41-35.28 328.41-29.52L328.41-29.52L328.41-14.76L332.19-14.76L332.19 0L303.93 0L303.93-14.76L307.71-14.76L307.71-29.52L307.71-29.52Q307.71-32.49 306.45-33.88L306.45-33.88L306.45-33.88Q305.19-35.28 302.67-35.28L302.67-35.28L302.67-35.28Q297.27-35.28 297.27-29.52L297.27-29.52L297.27-14.76L301.05-14.76L301.05 0L272.61 0L272.61-14.76L276.57-14.76L276.57-35.28L272.61-35.28L272.61-50.04L297.27-50.04L297.27-43.02L297.27-43.02Q303.75-51.30 313.47-51.30L313.47-51.30L313.47-51.30Q318.96-51.30 322.43-48.73L322.43-48.73L322.43-48.73Q325.89-46.17 327.33-41.49L327.33-41.49L327.33-41.49Q330.57-46.17 334.75-48.69L334.75-48.69L334.75-48.69Q338.94-51.21 344.61-51.21L344.61-51.21L344.61-51.21Q352.08-51.21 355.81-46.53L355.81-46.53L355.81-46.53Q359.55-41.85 359.55-33.66L359.55-33.66L359.55-14.76ZM414.90-14.76L418.86-14.76L418.86 0L395.10 0L395.10-6.12L395.10-6.12Q393.12-3.24 389.56-0.99L389.56-0.99L389.56-0.99Q386.01 1.26 380.88 1.26L380.88 1.26L380.88 1.26Q374.13 1.26 370.26-2.34L370.26-2.34L370.26-2.34Q366.39-5.94 366.39-12.51L366.39-12.51L366.39-12.51Q366.39-29.52 395.28-29.97L395.28-29.97L395.28-29.97Q395.01-33.03 392.94-34.16L392.94-34.16L392.94-34.16Q390.87-35.28 385.92-35.28L385.92-35.28L385.92-35.28Q381.87-35.28 377.23-34.42L377.23-34.42L377.23-34.42Q372.60-33.57 368.73-32.13L368.73-32.13L368.73-48.69L368.73-48.69Q373.50-49.86 379.08-50.58L379.08-50.58L379.08-50.58Q384.66-51.30 389.97-51.30L389.97-51.30L389.97-51.30Q403.38-51.30 409.14-46.44L409.14-46.44L409.14-46.44Q414.90-41.58 414.90-31.41L414.90-31.41L414.90-14.76ZM395.10-20.52L395.10-21.06L395.10-21.06Q391.05-21.06 388.84-19.98L388.84-19.98L388.84-19.98Q386.64-18.90 386.64-16.38L386.64-16.38L386.64-16.38Q386.64-14.85 387.58-13.90L387.58-13.90L387.58-13.90Q388.53-12.96 390.24-12.96L390.24-12.96L390.24-12.96Q392.58-12.96 393.84-14.94L393.84-14.94L393.84-14.94Q395.10-16.92 395.10-20.52L395.10-20.52ZM421.74 0L421.74-14.76L425.70-14.76L425.70-35.28L421.74-35.28L421.74-50.04L425.88-50.04L425.88-50.04Q425.88-61.02 431.24-66.15L431.24-66.15L431.24-66.15Q436.59-71.28 446.85-71.28L446.85-71.28L446.85-71.28Q451.80-71.28 455.72-70.56L455.72-70.56L455.72-70.56Q459.63-69.84 461.43-68.94L461.43-68.94L461.43-54.81L461.43-54.81Q456.66-55.26 452.61-55.26L452.61-55.26L452.61-55.26Q449.10-55.26 447.75-54.09L447.75-54.09L447.75-54.09Q446.40-52.92 446.40-50.04L446.40-50.04L453.42-50.04L453.42-35.28L446.40-35.28L446.40-14.76L453.42-14.76L453.42 0L421.74 0ZM508.68 14.94L454.68 14.94L454.68 6.48L508.68 6.48L508.68 14.94ZM532.17 1.26L532.17 1.26Q520.83 1.26 510.30-2.34L510.30-2.34L510.30-15.66L524.88-15.66L524.88-14.76L524.88-14.76Q524.88-10.44 530.37-10.44L530.37-10.44L530.37-10.44Q535.23-10.44 535.23-13.77L535.23-13.77L535.23-13.77Q535.23-15.57 533.84-16.47L533.84-16.47L533.84-16.47Q532.44-17.37 528.93-18L528.93-18L524.43-18.81L524.43-18.81Q510.30-21.33 510.30-34.83L510.30-34.83L510.30-34.83Q510.30-42.66 516.24-46.98L516.24-46.98L516.24-46.98Q522.18-51.30 532.26-51.30L532.26-51.30L532.26-51.30Q543.51-51.30 551.25-47.52L551.25-47.52L551.25-35.01L537.57-35.01L537.57-35.91L537.57-35.91Q537.57-37.71 536.36-38.66L536.36-38.66L536.36-38.66Q535.14-39.60 532.80-39.60L532.80-39.60L532.80-39.60Q528.30-39.60 528.30-36.72L528.30-36.72L528.30-36.72Q528.30-35.19 529.56-34.38L529.56-34.38L529.56-34.38Q530.82-33.57 534.15-32.85L534.15-32.85L539.28-31.86L539.28-31.86Q547.29-30.33 550.71-26.19L550.71-26.19L550.71-26.19Q554.13-22.05 554.13-15.57L554.13-15.57L554.13-15.57Q554.13-7.38 548.41-3.06L548.41-3.06L548.41-3.06Q542.70 1.26 532.17 1.26L532.17 1.26ZM599.13-35.73L599.13-35.73Q601.92-35.01 604.49-32.80L604.49-32.80L604.49-32.80Q607.05-30.60 608.72-27.27L608.72-27.27L608.72-27.27Q610.38-23.94 610.38-19.89L610.38-19.89L610.38-19.89Q610.38-9.99 603.31-4.37L603.31-4.37L603.31-4.37Q596.25 1.26 582.39 1.26L582.39 1.26L582.39 1.26Q575.82 1.26 569.25-0.22L569.25-0.22L569.25-0.22Q562.68-1.71 557.55-3.87L557.55-3.87L557.55-23.04L557.55-23.04Q563.13-20.61 569.12-19.08L569.12-19.08L569.12-19.08Q575.10-17.55 580.50-17.55L580.50-17.55L580.50-17.55Q584.28-17.55 586.03-18.72L586.03-18.72L586.03-18.72Q587.79-19.89 587.79-22.59L587.79-22.59L587.79-22.59Q587.79-27.81 581.49-27.81L581.49-27.81L575.01-27.81L575.01-42.57L580.05-42.57L580.05-42.57Q585.99-42.57 585.99-47.61L585.99-47.61L585.99-47.61Q585.99-52.47 580.05-52.47L580.05-52.47L580.05-52.47Q575.73-52.47 571.05-50.45L571.05-50.45L571.05-50.45Q566.37-48.42 561.96-45.18L561.96-45.18L556.65-64.35L556.65-64.35Q562.14-67.23 569.16-69.25L569.16-69.25L569.16-69.25Q576.18-71.28 583.29-71.28L583.29-71.28L583.29-71.28Q595.71-71.28 602.37-66.06L602.37-66.06L602.37-66.06Q609.03-60.84 609.03-51.30L609.03-51.30L609.03-51.30Q609.03-45.36 606.24-41.53L606.24-41.53L606.24-41.53Q603.45-37.71 599.13-35.73L599.13-35.73Z" fill="#31e7ed"></path></g></g><style>text {
  font-size: 64px;
  font-family: Arial Black;
  dominant-baseline: central;
  text-anchor: middle;
}</style></svg>